<?xml version="1.0" encoding="utf-8"?>
<!-- Generator: Adobe Illustrator 19.1.0, SVG Export Plug-In . SVG Version: 6.00 Build 0)  -->
<svg version="1.1" id="Layer_1" xmlns="http://www.w3.org/2000/svg" xmlns:xlink="http://www.w3.org/1999/xlink" x="0px" y="0px"
	 viewBox="11 -12 48 48" style="enable-background:new 11 -12 48 48;" xml:space="preserve">
<style type="text/css">
	.st0{fill:#7A7A7A;}
</style>
<path class="st0" d="M35,2c5.5,0,10,4.5,10,10c0,1.3-0.3,2.5-0.7,3.7l5.8,5.8c3-2.5,5.4-5.8,6.9-9.5C53.5,3.2,45-3,35-3
	c-2.8,0-5.5,0.5-8,1.4l4.3,4.3C32.5,2.3,33.7,2,35,2z M15-3.5l4.6,4.6L20.5,2c-3.3,2.6-5.9,6-7.5,10c3.5,8.8,12,15,22,15
	c3.1,0,6.1-0.6,8.8-1.7l0.8,0.8l5.9,5.8l2.5-2.5L17.5-6L15-3.5z M26.1,7.6l3.1,3.1C29.1,11.1,29,11.6,29,12c0,3.3,2.7,6,6,6
	c0.4,0,0.9-0.1,1.3-0.2l3.1,3.1C38.1,21.6,36.6,22,35,22c-5.5,0-10-4.5-10-10C25,10.4,25.4,8.9,26.1,7.6z M34.7,6l6.3,6.3l0-0.3
	c0-3.3-2.7-6-6-6L34.7,6z"/>
</svg>
