<?xml version="1.0" encoding="utf-8"?>
<!-- Generator: Adobe Illustrator 19.1.0, SVG Export Plug-In . SVG Version: 6.00 Build 0)  -->
<svg version="1.1" id="Layer_1" xmlns="http://www.w3.org/2000/svg" xmlns:xlink="http://www.w3.org/1999/xlink" x="0px" y="0px"
	 viewBox="11 -12 48 48" style="enable-background:new 11 -12 48 48;" xml:space="preserve">
<style type="text/css">
	.st0{fill:#7A7A7A;}
</style>
<path class="st0" d="M35-3C25-3,16.5,3.2,13,12c3.5,8.8,12,15,22,15s18.5-6.2,22-15C53.5,3.2,45-3,35-3z M35,22c-5.5,0-10-4.5-10-10
	S29.5,2,35,2s10,4.5,10,10S40.5,22,35,22z M35,6c-3.3,0-6,2.7-6,6s2.7,6,6,6s6-2.7,6-6S38.3,6,35,6z"/>
</svg>
